# xmcd
#
# Track frame offsets: 
#        150
#        17895
#        31945
#        43520
#        68615
#        81990
#        96842
#        113060
#        133602
#        149400
#        165769
#        179174
#        194876
#        213786
#        230729
#        244699
#        255774
#        275984
#
# Disc length: 4279 seconds
#
# Revision: 0
# Processed by: cddbd v1.5.1PL2 Copyright (c) Steve Scherf et al.
# Submitted via: ExactAudioCopy v0.95b2
#
DISCID=0210b512
DTITLE=Little Feat - Dixie Chicken - Feats Don't Fail Me Now
DYEAR=1973
DGENRE=Blues
TTITLE0=Dixie Chicken
TTITLE1=Two Trains
TTITLE2=Roll Um Easy
TTITLE3=On Your Way Down
TTITLE4=Kiss It Off
TTITLE5=Fool Yourself
TTITLE6=Walkin' All Night
TTITLE7=Fat Man In THe Bathtub
TTITLE8=Juliette
TTITLE9=Lafayette Railroad
TTITLE10=Rock And Roll Doctor
TTITLE11=Oh Atlanta
TTITLE12=Skin It Back
TTITLE13=Down The Road
TTITLE14=Spanish Moon
TTITLE15=Feet Don't Fail Me Now
TTITLE16=The Fan
TTITLE17=Cold cold cold - Tripe Face Boogie
EXTD=
EXTT0=
EXTT1=
EXTT2=
EXTT3=
EXTT4=
EXTT5=
EXTT6=
EXTT7=
EXTT8=
EXTT9=
EXTT10=
EXTT11=
EXTT12=
EXTT13=
EXTT14=
EXTT15=
EXTT16=
EXTT17=
PLAYORDER=
